# Blender v2.78 (sub 0) OBJ File: 'casadopato.blend'
# www.blender.org
mtllib casadopato.mtl
o Cube_Cube.003
v 1.000000 0.000000 -1.000000
v 1.000000 8.000000 -1.000000
v 1.000000 0.000000 1.000000
v 1.000000 8.000000 1.000000
v -1.000000 0.000000 -1.000000
v -1.000000 8.000000 -1.000000
v -1.000000 0.000000 1.000000
v -1.000000 8.000000 1.000000
v 1.000000 0.000000 -0.000000
v 1.000000 8.000000 -0.000000
v -1.000000 0.000000 0.000000
v -1.000000 8.000000 0.000000
v -7.000000 8.000000 1.000001
v -7.000000 0.000000 1.000001
v -7.000000 0.000000 0.000001
v -7.000000 8.000000 0.000001
v 1.000000 8.000000 -0.000000
v 1.000000 8.000000 1.000000
v 1.000000 0.000000 1.000000
v 1.000000 0.000000 -0.000000
v 6.422261 8.000000 -0.000001
v 6.422261 8.000000 0.999999
v 6.422261 0.000000 0.999999
v 6.422261 0.000000 -0.000001
v 2.491141 0.000000 1.000000
v 4.931121 0.000000 0.999999
v 4.931120 8.000000 0.999999
v 2.491140 8.000000 1.000000
v 2.491140 0.000000 -0.000000
v 4.931121 0.000000 -0.000001
v 5.435883 8.000000 -0.000001
v 2.995902 8.000000 -0.000000
v 1.000000 3.836810 -1.000000
v 1.000000 3.836810 1.000000
v -1.000000 3.836810 1.000000
v -1.000000 3.836810 -1.000000
v -1.000000 3.836810 0.000000
v 1.000000 3.836810 -0.000000
v -7.000000 3.836810 1.000001
v -7.000000 3.836810 0.000001
v 1.000000 3.836810 1.000000
v 1.000000 3.836810 -0.000000
v 6.422261 3.836810 0.999999
v 6.422261 3.836810 -0.000001
v 2.491140 3.836810 -0.000000
v 4.931121 3.836810 -0.000001
v 2.491140 3.836810 1.000000
v 4.931121 3.836810 0.999999
v 2.491140 0.000000 0.319079
v 4.931121 0.000000 0.319078
v 2.491140 3.836810 0.319079
v 4.931121 3.836810 0.319078
v 4.792659 0.000000 0.319078
v 2.658031 0.000000 0.319079
v 2.658032 3.635309 0.319078
v 4.792659 3.635309 0.319078
v 1.000000 0.902175 -1.000000
v -1.000000 0.902174 -1.000000
v 1.000000 1.889050 -1.000000
v -1.000000 1.889050 -1.000000
v 0.256417 0.902175 -1.000000
v 0.256417 1.889050 -1.000000
v -0.568675 0.902175 -1.000000
v -0.568675 0.000000 -1.000000
v 1.000000 2.843568 -1.000000
v -1.000000 2.843566 -1.000000
v 1.000000 0.902175 -1.092683
v 1.000000 1.889050 -1.092683
v 0.256417 0.902175 -1.092683
v 0.256417 1.889050 -1.092683
v -1.000000 0.902174 -1.068721
v -1.000000 0.000000 -1.068721
v -0.568675 0.000000 -1.068721
v -0.568675 0.902175 -1.068721
v 1.000000 1.889050 -0.406564
v 1.000000 0.898841 -0.405681
v 1.089194 0.902175 -1.000000
v 1.089194 1.889050 -1.000000
v 1.089194 0.902175 -1.092683
v 1.089194 1.889050 -1.092683
v 1.089194 1.889050 -0.406565
v 1.089194 0.898841 -0.405681
v 2.658031 0.000000 0.224241
v 4.792659 0.000000 0.224241
v 2.658032 3.635309 0.224241
v 4.792659 3.635309 0.224240
v -0.274259 2.843567 -1.000000
v -0.274259 1.889050 -1.000000
v 0.557124 2.843567 -1.000000
v 0.557124 3.836810 -1.000000
v 2.491140 4.518728 -0.000000
v 6.422261 4.518728 -0.000001
v 4.931121 4.518728 -0.000001
v 6.422261 4.518728 -0.241507
v 6.422261 3.836810 -0.241507
v 2.491140 4.518728 -0.241506
v 2.491140 3.836810 -0.241506
v 4.931121 4.518728 -0.241507
v 4.931121 3.836810 -0.241507
v 0.370963 4.518728 -0.000000
v 0.370963 3.836810 -0.000000
v 0.370963 4.518728 -0.241506
v 0.370963 3.836810 -0.241506
v 2.995902 5.470857 -0.000000
v 5.435883 5.470857 -0.000001
v 6.422261 5.739864 -0.000001
v 5.435883 8.000000 0.825103
v 2.995902 8.000000 0.825104
v 2.995902 5.470857 0.825104
v 5.435883 5.470857 0.825103
v -1.000000 2.843566 -1.100493
v -1.000000 1.889050 -1.100493
v -0.274259 1.889050 -1.100493
v -0.274259 2.843567 -1.100493
v 1.000000 2.843568 -1.091518
v 1.000000 3.836810 -1.091518
v 0.557124 3.836810 -1.091518
v 0.557124 2.843567 -1.091518
vn 0.0000 0.0000 1.0000
vn -1.0000 0.0000 0.0000
vn -0.0000 0.0000 -1.0000
vn 0.0000 -1.0000 0.0000
vn 0.0000 1.0000 0.0000
vn 1.0000 0.0000 -0.0000
vn 0.0000 -1.0000 -0.0056
vn 0.0000 0.0009 1.0000
usemtl None
s off
f 34//1 3//1 19//1 41//1
f 34//1 4//1 8//1 35//1
f 37//2 12//2 6//2 36//2
f 36//3 6//3 2//3 33//3 90//3
f 9//4 11//4 5//4 64//4 1//4
f 12//5 10//5 2//5 6//5
f 8//5 4//5 10//5 12//5
f 3//4 7//4 11//4 9//4
f 11//4 7//4 14//4 15//4
f 33//6 2//6 10//6 38//6
f 39//2 13//2 16//2 40//2
f 37//3 11//3 15//3 40//3
f 35//1 8//1 13//1 39//1
f 8//5 12//5 16//5 13//5
f 48//1 26//1 23//1 43//1
f 3//1 9//1 20//1 19//1
f 38//1 10//1 17//1 42//1
f 10//1 4//1 18//1 17//1
f 44//6 92//6 106//6 21//6 22//6 43//6
f 26//4 30//4 24//4 23//4
f 31//5 27//5 22//5 21//5
f 92//6 44//6 95//6 94//6
f 42//3 17//3 32//3 104//3 91//3 45//3
f 93//5 92//5 94//5 98//5
f 17//5 18//5 28//5 32//5
f 32//5 28//5 27//5 31//5
f 19//4 20//4 29//4 25//4
f 26//4 25//4 49//4 54//4 53//4 50//4
f 41//1 19//1 25//1 47//1
f 47//1 25//1 26//1 48//1
f 28//1 47//1 48//1 27//1
f 18//1 41//1 47//1 28//1
f 20//3 42//3 45//3 29//3
f 30//3 46//3 44//3 24//3
f 24//6 44//6 43//6 23//6
f 9//1 38//1 42//1 20//1
f 27//1 48//1 43//1 22//1
f 7//1 35//1 39//1 14//1
f 12//3 37//3 40//3 16//3
f 14//2 39//2 40//2 15//2
f 64//4 5//4 72//4 73//4
f 11//2 37//2 36//2 66//2 60//2 58//2 5//2
f 3//1 34//1 35//1 7//1
f 4//1 34//1 41//1 18//1
f 46//2 30//2 50//2 52//2
f 29//6 45//6 51//6 49//6
f 45//4 46//4 52//4 51//4
f 55//5 56//5 86//5 85//5
f 50//3 53//3 56//3 55//3 54//3 49//3 51//3 52//3
f 67//3 69//3 70//3 68//3
f 61//2 62//2 70//2 69//2
f 59//3 62//3 88//3 87//3 89//3 65//3
f 62//3 61//3 63//3 58//3 60//3 88//3
f 64//3 63//3 61//3 57//3 1//3
f 33//6 65//6 115//6 116//6
f 57//4 61//4 69//4 67//4
f 62//5 59//5 68//5 70//5
f 76//7 57//7 77//7 82//7
f 72//3 71//3 74//3 73//3
f 58//5 63//5 74//5 71//5
f 63//6 64//6 73//6 74//6
f 5//2 58//2 71//2 72//2
f 78//6 77//6 79//6 80//6
f 57//4 67//4 79//4 77//4
f 57//6 76//6 75//6 59//6 65//6 33//6 38//6 9//6 1//6
f 67//3 68//3 80//3 79//3
f 75//8 76//8 82//8 81//8
f 68//5 59//5 78//5 80//5
f 59//5 75//5 81//5 78//5
f 59//1 57//1 77//1 78//1
f 82//6 77//6 78//6 81//6
f 83//3 85//3 86//3 84//3
f 53//4 54//4 83//4 84//4
f 56//6 53//6 84//6 86//6
f 54//2 55//2 85//2 83//2
f 99//3 98//3 94//3 95//3
f 88//4 60//4 112//4 113//4
f 90//3 89//3 87//3 66//3 36//3
f 92//3 93//3 105//3 106//3
f 93//3 91//3 104//3 105//3
f 97//3 96//3 98//3 99//3
f 44//4 46//4 99//4 95//4
f 46//4 45//4 97//4 99//4
f 91//5 93//5 98//5 96//5
f 91//5 96//5 102//5 100//5
f 101//2 100//2 102//2 103//2
f 96//3 97//3 103//3 102//3
f 45//1 91//1 100//1 101//1
f 97//4 45//4 101//4 103//4
f 110//3 109//3 108//3 107//3
f 32//4 31//4 107//4 108//4
f 106//3 105//3 31//3 21//3
f 104//6 32//6 108//6 109//6
f 105//5 104//5 109//5 110//5
f 31//2 105//2 110//2 107//2
f 114//3 113//3 112//3 111//3
f 66//5 87//5 114//5 111//5
f 60//2 66//2 111//2 112//2
f 87//6 88//6 113//6 114//6
f 115//3 118//3 117//3 116//3
f 89//2 90//2 117//2 118//2
f 65//4 89//4 118//4 115//4
f 90//5 33//5 116//5 117//5
